<mxfile host="app.diagrams.net" modified="2022-02-21T16:50:48.875Z" agent="5.0 (Macintosh; Intel Mac OS X 10_15_7) AppleWebKit/605.1.15 (KHTML, like Gecko) Version/15.2 Safari/605.1.15" etag="oiQs7PhHu9suxGoKUaWq" version="16.6.1" type="github">
  <diagram id="xa9sk0alCmfFrsAKKkX3" name="Page-1">
    <mxGraphModel dx="613" dy="419" grid="1" gridSize="10" guides="1" tooltips="1" connect="1" arrows="1" fold="1" page="1" pageScale="1" pageWidth="827" pageHeight="1169" math="0" shadow="0">
      <root>
        <mxCell id="0" />
        <mxCell id="1" parent="0" />
        <mxCell id="jfP-JsLQYHJmiWU-nPho-25" style="edgeStyle=orthogonalEdgeStyle;rounded=0;orthogonalLoop=1;jettySize=auto;html=1;entryX=0.5;entryY=0;entryDx=0;entryDy=0;endArrow=none;endFill=0;" edge="1" parent="1" source="jfP-JsLQYHJmiWU-nPho-1" target="jfP-JsLQYHJmiWU-nPho-4">
          <mxGeometry relative="1" as="geometry" />
        </mxCell>
        <mxCell id="jfP-JsLQYHJmiWU-nPho-1" value="Vorname" style="ellipse;whiteSpace=wrap;html=1;align=center;" vertex="1" parent="1">
          <mxGeometry x="860" y="300" width="100" height="40" as="geometry" />
        </mxCell>
        <mxCell id="jfP-JsLQYHJmiWU-nPho-88" style="edgeStyle=orthogonalEdgeStyle;rounded=0;orthogonalLoop=1;jettySize=auto;html=1;exitX=0.5;exitY=1;exitDx=0;exitDy=0;entryX=0.392;entryY=0.049;entryDx=0;entryDy=0;entryPerimeter=0;endArrow=none;endFill=0;" edge="1" parent="1" source="jfP-JsLQYHJmiWU-nPho-2" target="jfP-JsLQYHJmiWU-nPho-3">
          <mxGeometry relative="1" as="geometry" />
        </mxCell>
        <mxCell id="jfP-JsLQYHJmiWU-nPho-2" value="&lt;span style=&quot;border-bottom: 1px dotted&quot;&gt;IdNr&lt;/span&gt;" style="ellipse;whiteSpace=wrap;html=1;align=center;" vertex="1" parent="1">
          <mxGeometry x="550" y="320" width="100" height="40" as="geometry" />
        </mxCell>
        <mxCell id="jfP-JsLQYHJmiWU-nPho-3" value="Segway" style="whiteSpace=wrap;html=1;align=center;" vertex="1" parent="1">
          <mxGeometry x="560" y="410" width="100" height="40" as="geometry" />
        </mxCell>
        <mxCell id="jfP-JsLQYHJmiWU-nPho-100" value="" style="edgeStyle=orthogonalEdgeStyle;rounded=0;orthogonalLoop=1;jettySize=auto;html=1;fontSize=21;endArrow=none;endFill=0;" edge="1" parent="1" source="jfP-JsLQYHJmiWU-nPho-4" target="jfP-JsLQYHJmiWU-nPho-99">
          <mxGeometry relative="1" as="geometry" />
        </mxCell>
        <mxCell id="jfP-JsLQYHJmiWU-nPho-4" value="Kunden" style="whiteSpace=wrap;html=1;align=center;" vertex="1" parent="1">
          <mxGeometry x="970" y="410" width="100" height="40" as="geometry" />
        </mxCell>
        <mxCell id="jfP-JsLQYHJmiWU-nPho-78" value="" style="edgeStyle=orthogonalEdgeStyle;rounded=0;orthogonalLoop=1;jettySize=auto;html=1;endArrow=none;endFill=0;" edge="1" parent="1" source="jfP-JsLQYHJmiWU-nPho-5" target="jfP-JsLQYHJmiWU-nPho-77">
          <mxGeometry relative="1" as="geometry" />
        </mxCell>
        <mxCell id="jfP-JsLQYHJmiWU-nPho-95" value="" style="edgeStyle=orthogonalEdgeStyle;rounded=0;orthogonalLoop=1;jettySize=auto;html=1;fontSize=21;endArrow=none;endFill=0;" edge="1" parent="1" source="jfP-JsLQYHJmiWU-nPho-5" target="jfP-JsLQYHJmiWU-nPho-94">
          <mxGeometry relative="1" as="geometry">
            <Array as="points">
              <mxPoint x="660" y="545" />
            </Array>
          </mxGeometry>
        </mxCell>
        <mxCell id="jfP-JsLQYHJmiWU-nPho-5" value="Trainer" style="whiteSpace=wrap;html=1;align=center;" vertex="1" parent="1">
          <mxGeometry x="560" y="640" width="100" height="40" as="geometry" />
        </mxCell>
        <mxCell id="jfP-JsLQYHJmiWU-nPho-6" value="Kurse" style="whiteSpace=wrap;html=1;align=center;" vertex="1" parent="1">
          <mxGeometry x="970" y="640" width="100" height="40" as="geometry" />
        </mxCell>
        <mxCell id="jfP-JsLQYHJmiWU-nPho-26" style="edgeStyle=orthogonalEdgeStyle;rounded=0;orthogonalLoop=1;jettySize=auto;html=1;entryX=0.75;entryY=0;entryDx=0;entryDy=0;endArrow=none;endFill=0;" edge="1" parent="1" source="jfP-JsLQYHJmiWU-nPho-11" target="jfP-JsLQYHJmiWU-nPho-4">
          <mxGeometry relative="1" as="geometry" />
        </mxCell>
        <mxCell id="jfP-JsLQYHJmiWU-nPho-11" value="Nachname" style="ellipse;whiteSpace=wrap;html=1;align=center;" vertex="1" parent="1">
          <mxGeometry x="944" y="260" width="100" height="40" as="geometry" />
        </mxCell>
        <mxCell id="jfP-JsLQYHJmiWU-nPho-27" style="edgeStyle=orthogonalEdgeStyle;rounded=0;orthogonalLoop=1;jettySize=auto;html=1;entryX=1;entryY=0;entryDx=0;entryDy=0;endArrow=none;endFill=0;" edge="1" parent="1" source="jfP-JsLQYHJmiWU-nPho-12" target="jfP-JsLQYHJmiWU-nPho-4">
          <mxGeometry relative="1" as="geometry" />
        </mxCell>
        <mxCell id="jfP-JsLQYHJmiWU-nPho-12" value="StraÃŸe" style="ellipse;whiteSpace=wrap;html=1;align=center;" vertex="1" parent="1">
          <mxGeometry x="1040" y="230" width="100" height="40" as="geometry" />
        </mxCell>
        <mxCell id="jfP-JsLQYHJmiWU-nPho-28" style="edgeStyle=orthogonalEdgeStyle;rounded=0;orthogonalLoop=1;jettySize=auto;html=1;entryX=1;entryY=0.25;entryDx=0;entryDy=0;endArrow=none;endFill=0;" edge="1" parent="1" source="jfP-JsLQYHJmiWU-nPho-13" target="jfP-JsLQYHJmiWU-nPho-4">
          <mxGeometry relative="1" as="geometry" />
        </mxCell>
        <mxCell id="jfP-JsLQYHJmiWU-nPho-13" value="PLZ" style="ellipse;whiteSpace=wrap;html=1;align=center;" vertex="1" parent="1">
          <mxGeometry x="1140" y="280" width="100" height="40" as="geometry" />
        </mxCell>
        <mxCell id="jfP-JsLQYHJmiWU-nPho-29" style="edgeStyle=orthogonalEdgeStyle;rounded=0;orthogonalLoop=1;jettySize=auto;html=1;entryX=1;entryY=0.5;entryDx=0;entryDy=0;endArrow=none;endFill=0;" edge="1" parent="1" source="jfP-JsLQYHJmiWU-nPho-14" target="jfP-JsLQYHJmiWU-nPho-4">
          <mxGeometry relative="1" as="geometry" />
        </mxCell>
        <mxCell id="jfP-JsLQYHJmiWU-nPho-14" value="HausNr" style="ellipse;whiteSpace=wrap;html=1;align=center;" vertex="1" parent="1">
          <mxGeometry x="1157" y="340" width="100" height="40" as="geometry" />
        </mxCell>
        <mxCell id="jfP-JsLQYHJmiWU-nPho-32" style="edgeStyle=orthogonalEdgeStyle;rounded=0;orthogonalLoop=1;jettySize=auto;html=1;entryX=1;entryY=0.75;entryDx=0;entryDy=0;endArrow=none;endFill=0;" edge="1" parent="1" source="jfP-JsLQYHJmiWU-nPho-15" target="jfP-JsLQYHJmiWU-nPho-4">
          <mxGeometry relative="1" as="geometry" />
        </mxCell>
        <mxCell id="jfP-JsLQYHJmiWU-nPho-15" value="Ort" style="ellipse;whiteSpace=wrap;html=1;align=center;" vertex="1" parent="1">
          <mxGeometry x="1157" y="420" width="100" height="40" as="geometry" />
        </mxCell>
        <mxCell id="jfP-JsLQYHJmiWU-nPho-24" style="edgeStyle=orthogonalEdgeStyle;rounded=0;orthogonalLoop=1;jettySize=auto;html=1;entryX=0.25;entryY=0;entryDx=0;entryDy=0;endArrow=none;endFill=0;" edge="1" parent="1" source="jfP-JsLQYHJmiWU-nPho-16" target="jfP-JsLQYHJmiWU-nPho-4">
          <mxGeometry relative="1" as="geometry" />
        </mxCell>
        <mxCell id="jfP-JsLQYHJmiWU-nPho-16" value="Geburtsdatum" style="ellipse;whiteSpace=wrap;html=1;align=center;" vertex="1" parent="1">
          <mxGeometry x="800" y="340" width="100" height="40" as="geometry" />
        </mxCell>
        <mxCell id="jfP-JsLQYHJmiWU-nPho-35" style="edgeStyle=orthogonalEdgeStyle;rounded=0;orthogonalLoop=1;jettySize=auto;html=1;entryX=0.5;entryY=1;entryDx=0;entryDy=0;endArrow=none;endFill=0;startArrow=none;" edge="1" parent="1" source="jfP-JsLQYHJmiWU-nPho-99" target="jfP-JsLQYHJmiWU-nPho-4">
          <mxGeometry relative="1" as="geometry" />
        </mxCell>
        <mxCell id="jfP-JsLQYHJmiWU-nPho-17" value="Geschlecht" style="ellipse;whiteSpace=wrap;html=1;align=center;" vertex="1" parent="1">
          <mxGeometry x="1150" y="600" width="100" height="40" as="geometry" />
        </mxCell>
        <mxCell id="jfP-JsLQYHJmiWU-nPho-34" style="edgeStyle=orthogonalEdgeStyle;rounded=0;orthogonalLoop=1;jettySize=auto;html=1;entryX=0.75;entryY=1;entryDx=0;entryDy=0;endArrow=none;endFill=0;" edge="1" parent="1" source="jfP-JsLQYHJmiWU-nPho-18" target="jfP-JsLQYHJmiWU-nPho-4">
          <mxGeometry relative="1" as="geometry" />
        </mxCell>
        <mxCell id="jfP-JsLQYHJmiWU-nPho-18" value="TelefonNr" style="ellipse;whiteSpace=wrap;html=1;align=center;" vertex="1" parent="1">
          <mxGeometry x="1150" y="540" width="100" height="40" as="geometry" />
        </mxCell>
        <mxCell id="jfP-JsLQYHJmiWU-nPho-33" style="edgeStyle=orthogonalEdgeStyle;rounded=0;orthogonalLoop=1;jettySize=auto;html=1;entryX=1;entryY=1;entryDx=0;entryDy=0;endArrow=none;endFill=0;" edge="1" parent="1" source="jfP-JsLQYHJmiWU-nPho-19" target="jfP-JsLQYHJmiWU-nPho-4">
          <mxGeometry relative="1" as="geometry" />
        </mxCell>
        <mxCell id="jfP-JsLQYHJmiWU-nPho-19" value="Email" style="ellipse;whiteSpace=wrap;html=1;align=center;" vertex="1" parent="1">
          <mxGeometry x="1140" y="480" width="100" height="40" as="geometry" />
        </mxCell>
        <mxCell id="jfP-JsLQYHJmiWU-nPho-57" style="edgeStyle=orthogonalEdgeStyle;rounded=0;orthogonalLoop=1;jettySize=auto;html=1;endArrow=none;endFill=0;" edge="1" parent="1" source="jfP-JsLQYHJmiWU-nPho-37" target="jfP-JsLQYHJmiWU-nPho-5">
          <mxGeometry relative="1" as="geometry" />
        </mxCell>
        <mxCell id="jfP-JsLQYHJmiWU-nPho-37" value="Vorname" style="ellipse;whiteSpace=wrap;html=1;align=center;" vertex="1" parent="1">
          <mxGeometry x="450" y="540" width="100" height="40" as="geometry" />
        </mxCell>
        <mxCell id="jfP-JsLQYHJmiWU-nPho-59" style="edgeStyle=orthogonalEdgeStyle;rounded=0;orthogonalLoop=1;jettySize=auto;html=1;entryX=0;entryY=0;entryDx=0;entryDy=0;endArrow=none;endFill=0;" edge="1" parent="1" source="jfP-JsLQYHJmiWU-nPho-39" target="jfP-JsLQYHJmiWU-nPho-5">
          <mxGeometry relative="1" as="geometry" />
        </mxCell>
        <mxCell id="jfP-JsLQYHJmiWU-nPho-39" value="Nachname" style="ellipse;whiteSpace=wrap;html=1;align=center;" vertex="1" parent="1">
          <mxGeometry x="440" y="660" width="100" height="40" as="geometry" />
        </mxCell>
        <mxCell id="jfP-JsLQYHJmiWU-nPho-60" style="edgeStyle=orthogonalEdgeStyle;rounded=0;orthogonalLoop=1;jettySize=auto;html=1;endArrow=none;endFill=0;" edge="1" parent="1" source="jfP-JsLQYHJmiWU-nPho-41">
          <mxGeometry relative="1" as="geometry">
            <mxPoint x="560.0000000000001" y="659.9999999999999" as="targetPoint" />
          </mxGeometry>
        </mxCell>
        <mxCell id="jfP-JsLQYHJmiWU-nPho-41" value="StraÃŸe" style="ellipse;whiteSpace=wrap;html=1;align=center;" vertex="1" parent="1">
          <mxGeometry x="430" y="735" width="100" height="40" as="geometry" />
        </mxCell>
        <mxCell id="jfP-JsLQYHJmiWU-nPho-64" style="edgeStyle=orthogonalEdgeStyle;rounded=0;orthogonalLoop=1;jettySize=auto;html=1;entryX=0.75;entryY=1;entryDx=0;entryDy=0;endArrow=none;endFill=0;" edge="1" parent="1" source="jfP-JsLQYHJmiWU-nPho-43" target="jfP-JsLQYHJmiWU-nPho-5">
          <mxGeometry relative="1" as="geometry" />
        </mxCell>
        <mxCell id="jfP-JsLQYHJmiWU-nPho-43" value="PLZ" style="ellipse;whiteSpace=wrap;html=1;align=center;" vertex="1" parent="1">
          <mxGeometry x="550" y="850" width="100" height="40" as="geometry" />
        </mxCell>
        <mxCell id="jfP-JsLQYHJmiWU-nPho-61" style="edgeStyle=orthogonalEdgeStyle;rounded=0;orthogonalLoop=1;jettySize=auto;html=1;endArrow=none;endFill=0;" edge="1" parent="1" source="jfP-JsLQYHJmiWU-nPho-45">
          <mxGeometry relative="1" as="geometry">
            <mxPoint x="560.0000000000001" y="669.9999999999999" as="targetPoint" />
          </mxGeometry>
        </mxCell>
        <mxCell id="jfP-JsLQYHJmiWU-nPho-62" style="edgeStyle=orthogonalEdgeStyle;rounded=0;orthogonalLoop=1;jettySize=auto;html=1;entryX=0.25;entryY=1;entryDx=0;entryDy=0;endArrow=none;endFill=0;" edge="1" parent="1" source="jfP-JsLQYHJmiWU-nPho-45" target="jfP-JsLQYHJmiWU-nPho-5">
          <mxGeometry relative="1" as="geometry" />
        </mxCell>
        <mxCell id="jfP-JsLQYHJmiWU-nPho-45" value="HausNr" style="ellipse;whiteSpace=wrap;html=1;align=center;" vertex="1" parent="1">
          <mxGeometry x="470" y="790" width="100" height="40" as="geometry" />
        </mxCell>
        <mxCell id="jfP-JsLQYHJmiWU-nPho-65" style="edgeStyle=orthogonalEdgeStyle;rounded=0;orthogonalLoop=1;jettySize=auto;html=1;entryX=1;entryY=1;entryDx=0;entryDy=0;endArrow=none;endFill=0;" edge="1" parent="1" source="jfP-JsLQYHJmiWU-nPho-47" target="jfP-JsLQYHJmiWU-nPho-5">
          <mxGeometry relative="1" as="geometry" />
        </mxCell>
        <mxCell id="jfP-JsLQYHJmiWU-nPho-47" value="Ort" style="ellipse;whiteSpace=wrap;html=1;align=center;" vertex="1" parent="1">
          <mxGeometry x="640" y="810" width="100" height="40" as="geometry" />
        </mxCell>
        <mxCell id="jfP-JsLQYHJmiWU-nPho-58" style="edgeStyle=orthogonalEdgeStyle;rounded=0;orthogonalLoop=1;jettySize=auto;html=1;entryX=0.25;entryY=0;entryDx=0;entryDy=0;endArrow=none;endFill=0;" edge="1" parent="1" source="jfP-JsLQYHJmiWU-nPho-49" target="jfP-JsLQYHJmiWU-nPho-5">
          <mxGeometry relative="1" as="geometry" />
        </mxCell>
        <mxCell id="jfP-JsLQYHJmiWU-nPho-49" value="Geburtsdatum" style="ellipse;whiteSpace=wrap;html=1;align=center;" vertex="1" parent="1">
          <mxGeometry x="450" y="600" width="100" height="40" as="geometry" />
        </mxCell>
        <mxCell id="jfP-JsLQYHJmiWU-nPho-63" style="edgeStyle=orthogonalEdgeStyle;rounded=0;orthogonalLoop=1;jettySize=auto;html=1;entryX=0.5;entryY=1;entryDx=0;entryDy=0;endArrow=none;endFill=0;" edge="1" parent="1" source="jfP-JsLQYHJmiWU-nPho-51" target="jfP-JsLQYHJmiWU-nPho-5">
          <mxGeometry relative="1" as="geometry" />
        </mxCell>
        <mxCell id="jfP-JsLQYHJmiWU-nPho-51" value="Geschlecht" style="ellipse;whiteSpace=wrap;html=1;align=center;" vertex="1" parent="1">
          <mxGeometry x="560" y="750" width="100" height="40" as="geometry" />
        </mxCell>
        <mxCell id="jfP-JsLQYHJmiWU-nPho-67" style="edgeStyle=orthogonalEdgeStyle;rounded=0;orthogonalLoop=1;jettySize=auto;html=1;entryX=1;entryY=0.5;entryDx=0;entryDy=0;endArrow=none;endFill=0;" edge="1" parent="1" source="jfP-JsLQYHJmiWU-nPho-53" target="jfP-JsLQYHJmiWU-nPho-5">
          <mxGeometry relative="1" as="geometry" />
        </mxCell>
        <mxCell id="jfP-JsLQYHJmiWU-nPho-53" value="TelefonNr" style="ellipse;whiteSpace=wrap;html=1;align=center;" vertex="1" parent="1">
          <mxGeometry x="740" y="780" width="100" height="40" as="geometry" />
        </mxCell>
        <mxCell id="jfP-JsLQYHJmiWU-nPho-66" style="edgeStyle=orthogonalEdgeStyle;rounded=0;orthogonalLoop=1;jettySize=auto;html=1;entryX=1;entryY=0.75;entryDx=0;entryDy=0;endArrow=none;endFill=0;" edge="1" parent="1" source="jfP-JsLQYHJmiWU-nPho-55" target="jfP-JsLQYHJmiWU-nPho-5">
          <mxGeometry relative="1" as="geometry" />
        </mxCell>
        <mxCell id="jfP-JsLQYHJmiWU-nPho-55" value="Email" style="ellipse;whiteSpace=wrap;html=1;align=center;fontStyle=4" vertex="1" parent="1">
          <mxGeometry x="670" y="735" width="100" height="40" as="geometry" />
        </mxCell>
        <mxCell id="jfP-JsLQYHJmiWU-nPho-70" style="edgeStyle=orthogonalEdgeStyle;rounded=0;orthogonalLoop=1;jettySize=auto;html=1;entryX=1;entryY=0.25;entryDx=0;entryDy=0;endArrow=none;endFill=0;" edge="1" parent="1" source="jfP-JsLQYHJmiWU-nPho-68" target="jfP-JsLQYHJmiWU-nPho-5">
          <mxGeometry relative="1" as="geometry" />
        </mxCell>
        <mxCell id="jfP-JsLQYHJmiWU-nPho-68" value="Qualifikationsstufe" style="ellipse;whiteSpace=wrap;html=1;align=center;" vertex="1" parent="1">
          <mxGeometry x="760" y="710" width="100" height="40" as="geometry" />
        </mxCell>
        <mxCell id="jfP-JsLQYHJmiWU-nPho-73" style="edgeStyle=orthogonalEdgeStyle;rounded=0;orthogonalLoop=1;jettySize=auto;html=1;endArrow=none;endFill=0;" edge="1" parent="1" source="jfP-JsLQYHJmiWU-nPho-72">
          <mxGeometry relative="1" as="geometry">
            <mxPoint x="1070.0000000000002" y="400" as="targetPoint" />
          </mxGeometry>
        </mxCell>
        <mxCell id="jfP-JsLQYHJmiWU-nPho-72" value="Kursstufe" style="ellipse;whiteSpace=wrap;html=1;align=center;" vertex="1" parent="1">
          <mxGeometry x="1190" y="220" width="100" height="40" as="geometry" />
        </mxCell>
        <mxCell id="jfP-JsLQYHJmiWU-nPho-89" style="edgeStyle=orthogonalEdgeStyle;rounded=0;orthogonalLoop=1;jettySize=auto;html=1;exitX=1;exitY=0.5;exitDx=0;exitDy=0;entryX=0.125;entryY=0.025;entryDx=0;entryDy=0;entryPerimeter=0;endArrow=none;endFill=0;" edge="1" parent="1" source="jfP-JsLQYHJmiWU-nPho-74" target="jfP-JsLQYHJmiWU-nPho-3">
          <mxGeometry relative="1" as="geometry" />
        </mxCell>
        <mxCell id="jfP-JsLQYHJmiWU-nPho-74" value="GeschwindikeitSt" style="ellipse;whiteSpace=wrap;html=1;align=center;" vertex="1" parent="1">
          <mxGeometry x="450" y="350" width="100" height="40" as="geometry" />
        </mxCell>
        <mxCell id="jfP-JsLQYHJmiWU-nPho-90" style="edgeStyle=orthogonalEdgeStyle;rounded=0;orthogonalLoop=1;jettySize=auto;html=1;exitX=1;exitY=0.5;exitDx=0;exitDy=0;entryX=0;entryY=0.5;entryDx=0;entryDy=0;endArrow=none;endFill=0;" edge="1" parent="1" source="jfP-JsLQYHJmiWU-nPho-75" target="jfP-JsLQYHJmiWU-nPho-3">
          <mxGeometry relative="1" as="geometry" />
        </mxCell>
        <mxCell id="jfP-JsLQYHJmiWU-nPho-75" value="Ausstattungsart" style="ellipse;whiteSpace=wrap;html=1;align=center;" vertex="1" parent="1">
          <mxGeometry x="430" y="420" width="100" height="40" as="geometry" />
        </mxCell>
        <mxCell id="jfP-JsLQYHJmiWU-nPho-79" style="edgeStyle=orthogonalEdgeStyle;rounded=0;orthogonalLoop=1;jettySize=auto;html=1;entryX=0;entryY=0.5;entryDx=0;entryDy=0;endArrow=none;endFill=0;" edge="1" parent="1" source="jfP-JsLQYHJmiWU-nPho-77" target="jfP-JsLQYHJmiWU-nPho-6">
          <mxGeometry relative="1" as="geometry" />
        </mxCell>
        <mxCell id="jfP-JsLQYHJmiWU-nPho-77" value="geleitet" style="rhombus;whiteSpace=wrap;html=1;" vertex="1" parent="1">
          <mxGeometry x="800" y="620" width="80" height="80" as="geometry" />
        </mxCell>
        <mxCell id="jfP-JsLQYHJmiWU-nPho-84" style="edgeStyle=orthogonalEdgeStyle;rounded=0;orthogonalLoop=1;jettySize=auto;html=1;exitX=0;exitY=0.5;exitDx=0;exitDy=0;entryX=1;entryY=0.5;entryDx=0;entryDy=0;endArrow=none;endFill=0;" edge="1" parent="1" source="jfP-JsLQYHJmiWU-nPho-80" target="jfP-JsLQYHJmiWU-nPho-6">
          <mxGeometry relative="1" as="geometry" />
        </mxCell>
        <mxCell id="jfP-JsLQYHJmiWU-nPho-80" value="Datum" style="ellipse;whiteSpace=wrap;html=1;align=center;" vertex="1" parent="1">
          <mxGeometry x="1140" y="670" width="100" height="40" as="geometry" />
        </mxCell>
        <mxCell id="jfP-JsLQYHJmiWU-nPho-87" style="edgeStyle=orthogonalEdgeStyle;rounded=0;orthogonalLoop=1;jettySize=auto;html=1;exitX=0;exitY=0;exitDx=0;exitDy=0;entryX=0.5;entryY=1;entryDx=0;entryDy=0;endArrow=none;endFill=0;" edge="1" parent="1" source="jfP-JsLQYHJmiWU-nPho-81" target="jfP-JsLQYHJmiWU-nPho-6">
          <mxGeometry relative="1" as="geometry" />
        </mxCell>
        <mxCell id="jfP-JsLQYHJmiWU-nPho-81" value="&lt;span style=&quot;border-bottom: 1px dotted&quot;&gt;KursNr&lt;/span&gt;" style="ellipse;whiteSpace=wrap;html=1;align=center;" vertex="1" parent="1">
          <mxGeometry x="1000" y="790" width="100" height="40" as="geometry" />
        </mxCell>
        <mxCell id="jfP-JsLQYHJmiWU-nPho-85" style="edgeStyle=orthogonalEdgeStyle;rounded=0;orthogonalLoop=1;jettySize=auto;html=1;exitX=0;exitY=0.5;exitDx=0;exitDy=0;entryX=1;entryY=1;entryDx=0;entryDy=0;endArrow=none;endFill=0;" edge="1" parent="1" source="jfP-JsLQYHJmiWU-nPho-82" target="jfP-JsLQYHJmiWU-nPho-6">
          <mxGeometry relative="1" as="geometry" />
        </mxCell>
        <mxCell id="jfP-JsLQYHJmiWU-nPho-82" value="Uhrzeit" style="ellipse;whiteSpace=wrap;html=1;align=center;" vertex="1" parent="1">
          <mxGeometry x="1130" y="720" width="100" height="40" as="geometry" />
        </mxCell>
        <mxCell id="jfP-JsLQYHJmiWU-nPho-86" style="edgeStyle=orthogonalEdgeStyle;rounded=0;orthogonalLoop=1;jettySize=auto;html=1;exitX=0;exitY=0;exitDx=0;exitDy=0;entryX=0.75;entryY=1;entryDx=0;entryDy=0;endArrow=none;endFill=0;" edge="1" parent="1" source="jfP-JsLQYHJmiWU-nPho-83" target="jfP-JsLQYHJmiWU-nPho-6">
          <mxGeometry relative="1" as="geometry" />
        </mxCell>
        <mxCell id="jfP-JsLQYHJmiWU-nPho-83" value="maxTeilnehmer" style="ellipse;whiteSpace=wrap;html=1;align=center;" vertex="1" parent="1">
          <mxGeometry x="1110" y="770" width="100" height="40" as="geometry" />
        </mxCell>
        <mxCell id="jfP-JsLQYHJmiWU-nPho-91" value="1" style="text;strokeColor=none;fillColor=none;spacingLeft=4;spacingRight=4;overflow=hidden;rotatable=0;points=[[0,0.5],[1,0.5]];portConstraint=eastwest;fontSize=12;" vertex="1" parent="1">
          <mxGeometry x="780" y="665" width="40" height="30" as="geometry" />
        </mxCell>
        <mxCell id="jfP-JsLQYHJmiWU-nPho-92" value="n" style="text;strokeColor=none;fillColor=none;spacingLeft=4;spacingRight=4;overflow=hidden;rotatable=0;points=[[0,0.5],[1,0.5]];portConstraint=eastwest;fontSize=12;" vertex="1" parent="1">
          <mxGeometry x="880" y="665" width="40" height="30" as="geometry" />
        </mxCell>
        <mxCell id="jfP-JsLQYHJmiWU-nPho-93" value="&lt;b&gt;&lt;font style=&quot;font-size: 21px&quot;&gt;SegYourWay&lt;/font&gt;&lt;/b&gt;" style="rounded=0;whiteSpace=wrap;html=1;strokeWidth=5;" vertex="1" parent="1">
          <mxGeometry x="620" y="60" width="420" height="80" as="geometry" />
        </mxCell>
        <mxCell id="jfP-JsLQYHJmiWU-nPho-96" style="edgeStyle=orthogonalEdgeStyle;rounded=0;orthogonalLoop=1;jettySize=auto;html=1;entryX=0;entryY=1;entryDx=0;entryDy=0;fontSize=21;endArrow=none;endFill=0;" edge="1" parent="1" source="jfP-JsLQYHJmiWU-nPho-94" target="jfP-JsLQYHJmiWU-nPho-4">
          <mxGeometry relative="1" as="geometry" />
        </mxCell>
        <mxCell id="jfP-JsLQYHJmiWU-nPho-94" value="Trainerstunde" style="rhombus;whiteSpace=wrap;html=1;" vertex="1" parent="1">
          <mxGeometry x="730" y="505" width="80" height="80" as="geometry" />
        </mxCell>
        <mxCell id="jfP-JsLQYHJmiWU-nPho-101" style="edgeStyle=orthogonalEdgeStyle;rounded=0;orthogonalLoop=1;jettySize=auto;html=1;fontSize=21;endArrow=none;endFill=0;" edge="1" parent="1" source="jfP-JsLQYHJmiWU-nPho-99" target="jfP-JsLQYHJmiWU-nPho-6">
          <mxGeometry relative="1" as="geometry" />
        </mxCell>
        <mxCell id="jfP-JsLQYHJmiWU-nPho-99" value="belegen" style="rhombus;whiteSpace=wrap;html=1;" vertex="1" parent="1">
          <mxGeometry x="980" y="505" width="80" height="80" as="geometry" />
        </mxCell>
        <mxCell id="jfP-JsLQYHJmiWU-nPho-102" value="" style="edgeStyle=orthogonalEdgeStyle;rounded=0;orthogonalLoop=1;jettySize=auto;html=1;entryX=0.5;entryY=1;entryDx=0;entryDy=0;endArrow=none;endFill=0;" edge="1" parent="1" source="jfP-JsLQYHJmiWU-nPho-17" target="jfP-JsLQYHJmiWU-nPho-99">
          <mxGeometry relative="1" as="geometry">
            <mxPoint x="1150.0002162634437" y="620.0588235294117" as="sourcePoint" />
            <mxPoint x="1020" y="450" as="targetPoint" />
          </mxGeometry>
        </mxCell>
        <mxCell id="jfP-JsLQYHJmiWU-nPho-103" value="n" style="text;strokeColor=none;fillColor=none;spacingLeft=4;spacingRight=4;overflow=hidden;rotatable=0;points=[[0,0.5],[1,0.5]];portConstraint=eastwest;fontSize=12;" vertex="1" parent="1">
          <mxGeometry x="1030" y="480" width="40" height="30" as="geometry" />
        </mxCell>
        <mxCell id="jfP-JsLQYHJmiWU-nPho-104" value="m" style="text;strokeColor=none;fillColor=none;spacingLeft=4;spacingRight=4;overflow=hidden;rotatable=0;points=[[0,0.5],[1,0.5]];portConstraint=eastwest;fontSize=12;" vertex="1" parent="1">
          <mxGeometry x="1030" y="585" width="40" height="30" as="geometry" />
        </mxCell>
        <mxCell id="jfP-JsLQYHJmiWU-nPho-105" value="muss" style="text;strokeColor=none;fillColor=none;spacingLeft=4;spacingRight=4;overflow=hidden;rotatable=0;points=[[0,0.5],[1,0.5]];portConstraint=eastwest;fontSize=12;" vertex="1" parent="1">
          <mxGeometry x="974" y="585" width="40" height="30" as="geometry" />
        </mxCell>
        <mxCell id="jfP-JsLQYHJmiWU-nPho-106" value="muss" style="text;strokeColor=none;fillColor=none;spacingLeft=4;spacingRight=4;overflow=hidden;rotatable=0;points=[[0,0.5],[1,0.5]];portConstraint=eastwest;fontSize=12;" vertex="1" parent="1">
          <mxGeometry x="974" y="480" width="40" height="30" as="geometry" />
        </mxCell>
      </root>
    </mxGraphModel>
  </diagram>
</mxfile>
